<?xml version="1.0" encoding="utf-8"?>
<!-- Generator: Adobe Illustrator 21.0.2, SVG Export Plug-In . SVG Version: 6.00 Build 0)  -->
<svg version="1.1" id="Layer_1" xmlns="http://www.w3.org/2000/svg" xmlns:xlink="http://www.w3.org/1999/xlink" x="0px" y="0px"
	 viewBox="0 0 100 100" style="enable-background:new 0 0 100 100;" xml:space="preserve">
<style type="text/css">
	.st0{fill:none;}
	.st1{fill:#FFFFFF;}
</style>
<g>
	<path d="M52.6,28.9v46.3c17.7-10.2,40.6-10.2,40.6-10.2V18.7C73.8,16.2,52.6,28.9,52.6,28.9z"/>
	<path d="M47.4,28.8c0,0-21-12.7-40.6-10.3V65c0,0,24.7,0,40.6,10.2V28.8z"/>
	<path d="M14.4,11.2l-5.1,3.2c25.9,0.3,38.8,11,38.8,11C37.3,11.7,14.4,11.2,14.4,11.2z"/>
	<path d="M85.3,11.2c0,0-22.9,0.4-33.7,14.3c0,0,12.9-10.7,38.8-11L85.3,11.2z"/>
	<rect x="20.8" y="81.6" width="52.3" height="7.2"/>
	<rect x="15" y="81.6" width="4.1" height="7.2"/>
	<polygon points="75.6,81.8 75.6,85.1 75.6,88.3 79.4,86.7 83.2,85.1 79.4,83.4 	"/>
</g>
</svg>
