<?xml version="1.0" encoding="utf-8"?>
<svg version="1.1" id="Layer_1"
	xmlns="http://www.w3.org/2000/svg"
	xmlns:xlink="http://www.w3.org/1999/xlink" x="0px" y="0px" viewBox="0 0 100 100" style="enable-background:new 0 0 100 100;" xml:space="preserve">

	<g>
		<circle cx="27.2" cy="15.9" r="6.8"/>
		<path d="M43.2,50.5l-6.6-20.3c-0.1-1.2-0.4-2.6-1-3.1c0,0-2.3-2.2-5.3-2.7c-0.1,0-0.4,1.8-3.1,2.3c0,0-2.2-0.3-3.1-2.3
		c0,0-4.4,1.3-5.4,3.4c0,0,0,0.1-0.1,0.2c-0.2,0.2-0.3,0.4-0.4,0.6l-7.5,22.3c-0.3,0.9,0.2,1.8,1.1,2.1l0.9,0.3
		c0.9,0.3,1.8-0.2,2.1-1.1l4.9-14.6c0.1,0.2,0.1,0.3,0.1,0.3c0,0.5,0,0.9,0,1.4l-4.6,27h5.5L21,88.7c0,1.2,1,2.1,2.2,2.1
		c1.2,0,2.1-1,2.1-2.2l-0.2-22.4h4.7L30,88.7c0,1.2,1,2.1,2.2,2.1s2.1-1,2.1-2.2l-0.2-22.4h5.2l-4-22.9c0.2-0.6,0.3-1.3,0.4-2
		l3.5,10.4c0.4,1.1,1.6,1.7,2.7,1.4h0C43,52.8,43.6,51.6,43.2,50.5z"/>
		<polygon points="13.4,59.5 13.4,52.2 12.3,52.2 12.3,59.5 10.4,59.5 10.4,80 15.3,80 15.3,59.5 	"/>
		<circle cx="62.5" cy="15.9" r="6.8"/>
		<g>
			<path d="M82.7,20.1C82.7,20.1,82.7,20.1,82.7,20.1c0-0.7-0.5-1.2-1.1-1.4c-0.1,0-0.1-0.1-0.2-0.1c0,0,0,0,0,0c0,0,0,0,0,0
			c-0.8,0-1.4,0.6-1.4,1.4c0,0,0,0,0,0c-0.1,0-0.2,0.1-0.3,0.1c-3.4,0.8-5.9,4-5.6,7.2c4.9,0,9.9,0,14.8,0
			C88.9,24,86.6,21.3,82.7,20.1z"/>
			<path d="M73,28.4c0.1,1.1,0.7,1.8,1.8,1.8c4.4,0,8.7,0,13.1,0c1.1,0,1.8-0.7,1.7-1.8C84,28.4,78.5,28.4,73,28.4z"/>
		</g>
		<path d="M83.9,29.2h-3.5l-6.5,8l-2-6.5c-0.1-1.3-0.3-3.1-1.1-3.7c0,0-2.3-2.2-5.3-2.7c-0.1,0-0.4,1.8-3.1,2.3c0,0-2.2-0.3-3.1-2.3
		c0,0-4.4,1.3-5.4,3.4c0,0,0,0.1-0.1,0.2c-0.2,0.2-0.3,0.4-0.4,0.6l-7.5,22.3c-0.3,0.9,0.2,1.8,1.1,2.1l0.9,0.3
		c0.9,0.3,1.8-0.2,2.1-1.1l3.6-10.6l2,24.7h0.7l0.2,22.4c0,1.2,0.9,2.1,2,2.1c1.1,0,2-1,2-2.2l-0.2-22.4h4.3l0.2,22.4
		c0,1.2,0.9,2.1,2,2.1c1.1,0,2-1,2-2.2l-0.2-22.4h0.7l1.8-22.4c0.1-0.2,0.2-0.4,0.2-0.6c0.3,0.6,1.3,0.8,2.4,0.5
		c0.9-0.3,1.5-0.9,1.6-1.4L85,31.1C85.4,30.7,84.7,29.2,83.9,29.2z M64.9,30.4l-1.2-0.7c-0.1,0.2-0.3,0.3-0.6,0.3
		c-0.3,0-0.5-0.1-0.6-0.3l-1.2,0.7l-1.9,1.1l0-2.2l0-2.2l1.9,1.1l1.2,0.7c0.1-0.2,0.3-0.3,0.6-0.3c0.2,0,0.4,0.1,0.6,0.3l1.2-0.7
		l1.9-1.1l0,2.2l0,2.2L64.9,30.4z"/>
	</g>
</svg>
